<svg version="1.1" id="Vrstva_1" xmlns="http://www.w3.org/2000/svg" xmlns:xlink="http://www.w3.org/1999/xlink" x="0px" y="0px"
	 viewBox="0 0 100 100" style="enable-background:new 0 0 100 100;" xml:space="preserve">
<g>
	<path style="fill:#19131D;" d="M58.13,96.35H41.87c-6.36,0-11.51-5.15-11.51-11.51V21.89c0-10.07,8.17-18.24,18.24-18.24h2.79
		c10.07,0,18.24,8.17,18.24,18.24v62.96C69.64,91.2,64.48,96.35,58.13,96.35z"/>
	<path style="fill:#19131D;" d="M31.1,30.98c1.09-0.18,0.74,1.93,0,2.41c-0.74,0.48-5.12,1.45-5.12,1.45S25.99,31.84,31.1,30.98z"/>
	<path style="fill:#19131D;" d="M68.9,30.98c-1.09-0.18-0.74,1.93,0,2.41c0.74,0.48,5.12,1.45,5.12,1.45S74.01,31.84,68.9,30.98z"/>
	<g>
		<g>
			<path style="fill:#FFFFFF;" d="M40.46,6.83c0.14-0.35,0.18-0.73,0.13-1.1c-2.54,1.05-4.68,2.87-6.16,5.19
				c0.93-0.8,1.97-1.46,3.08-1.96C38.65,8.46,39.99,8,40.46,6.83z"/>
			<path style="fill:#FFFFFF;" d="M59.54,6.83c-0.14-0.35-0.18-0.73-0.13-1.1c2.54,1.05,4.68,2.87,6.16,5.19
				c-0.93-0.8-1.97-1.46-3.08-1.96C61.35,8.46,60.01,8,59.54,6.83z"/>
			<path style="fill:#45474A;" d="M36.36,55.14c-0.06-4.88-0.18-9.35-0.18-11c0-4.92-3.58-9.56-3.58-9.56v19.1
				C33.83,54.23,35.09,54.68,36.36,55.14z"/>
			<path style="fill:#45474A;" d="M36.26,84.08c0.15-3.1,0.15-24.17,0.11-28.24c-1.27-0.36-2.53-0.75-3.76-1.21v31.29
				C33.84,85.36,35.06,84.75,36.26,84.08z"/>
			<path style="fill:#45474A;" d="M63.64,55.14c0.06-4.88,0.18-9.35,0.18-11c0-4.92,3.58-9.56,3.58-9.56v19.1
				C66.17,54.23,64.91,54.68,63.64,55.14z"/>
			<path style="fill:#45474A;" d="M63.74,84.08c-0.15-3.1-0.15-24.17-0.11-28.24c1.27-0.36,2.53-0.75,3.76-1.21v31.29
				C66.16,85.36,64.94,84.75,63.74,84.08z"/>
			<path style="fill:#45474A;" d="M65.47,31.38c-0.21,1.58-0.92,4.75-3.27,7.99c-0.33,0.45-0.86,0.69-1.4,0.64
				c-1.81-0.16-6.23-0.5-10.8-0.5s-8.99,0.34-10.8,0.5c-0.54,0.05-1.08-0.19-1.4-0.64c-2.34-3.24-3.05-6.41-3.27-7.99
				c-0.09-0.67,0.22-1.34,0.8-1.66c1.61-0.9,5.7-2.47,14.66-2.47c8.97,0,13.05,1.57,14.66,2.47C65.25,30.04,65.56,30.71,65.47,31.38
				z"/>
		</g>
		<path style="fill:#C40000;" d="M37.01,94.57c-1.19-0.37-2.3-1.03-3.2-1.91c-0.23-0.23-0.46-0.48-0.76-0.62
			c-0.2-0.1-0.45-0.13-0.66-0.07c1.26,1.77,3.2,3.01,5.43,3.31c0-0.01,0-0.02,0-0.02C37.81,94.86,37.37,94.68,37.01,94.57z"/>
		<path style="fill:#C40000;" d="M62.99,94.57c1.19-0.37,2.3-1.03,3.2-1.91c0.23-0.23,0.46-0.48,0.76-0.62
			c0.2-0.1,0.45-0.13,0.66-0.07c-1.26,1.77-3.2,3.01-5.43,3.31c0-0.01,0-0.02,0-0.02C62.19,94.86,62.63,94.68,62.99,94.57z"/>
	</g>
</g>
<path id="Blik_L_Z" style="fill:#FC8F00;" d="M35.22,93.76c-0.51-0.31-0.98-0.68-1.41-1.1c-0.23-0.23-0.46-0.48-0.76-0.62
	c-0.2-0.1-0.45-0.13-0.66-0.07c0.65,0.91,1.48,1.68,2.44,2.26C35.73,94.76,35.78,94.1,35.22,93.76z"/>
<path id="Blik_R_Z" style="fill:#FC8F00;" d="M64.68,93.82c0.54-0.32,1.05-0.71,1.51-1.16c0.23-0.23,0.46-0.48,0.76-0.62
	c0.2-0.1,0.45-0.13,0.66-0.07c-0.72,1.01-1.66,1.85-2.75,2.44C64.03,94.84,64.15,94.13,64.68,93.82z"/>
<ellipse id="Blik_R_S" style="fill:#FC8F00;" cx="30.36" cy="26.87" rx="0.84" ry="1.87"/>
<ellipse id="Blik_L_S" style="fill:#FC8F00;" cx="69.64" cy="26.87" rx="0.84" ry="1.87"/>
<ellipse id="Blik_R_P_1_" style="fill:#FC8F00;" cx="39.29" cy="7.26" rx="0.84" ry="0.57"/>
<ellipse id="Blik_R_P" style="fill:#FC8F00;" cx="60.8" cy="7.26" rx="0.84" ry="0.57"/>
</svg>
